<svg width="148" height="144" viewBox="0 0 148 144" fill="none" xmlns="http://www.w3.org/2000/svg">
<path fill-rule="evenodd" clip-rule="evenodd" d="M73.8229 0C33.057 0 0 33.0508 0 73.8228C0 106.44 21.1525 134.112 50.4846 143.873C54.174 144.556 55.5285 142.272 55.5285 140.322C55.5285 138.561 55.4601 132.746 55.4283 126.578C34.8907 131.043 30.557 117.867 30.557 117.867C27.1989 109.335 22.3603 107.066 22.3603 107.066C15.6624 102.484 22.8652 102.578 22.8652 102.578C30.2783 103.097 34.1816 110.187 34.1816 110.187C40.7659 121.471 51.4516 118.208 55.6642 116.322C56.3268 111.551 58.2399 108.293 60.3512 106.451C43.9541 104.584 26.7172 98.254 26.7172 69.9671C26.7172 61.9074 29.601 55.3219 34.3234 50.1521C33.557 48.2915 31.0301 40.7842 35.0386 30.6157C35.0386 30.6157 41.2378 28.6316 55.3451 38.1828C61.2338 36.5471 67.5491 35.7268 73.8229 35.6987C80.0966 35.7268 86.4168 36.5471 92.3165 38.1828C106.407 28.6316 112.597 30.6157 112.597 30.6157C116.616 40.7842 114.088 48.2915 113.321 50.1521C118.054 55.3219 120.919 61.9074 120.919 69.9671C120.919 98.3212 103.649 104.564 87.2102 106.392C89.8581 108.683 92.2174 113.176 92.2174 120.063C92.2174 129.941 92.1319 137.89 92.1319 140.322C92.1319 142.286 93.4607 144.588 97.2027 143.863C126.519 134.091 147.644 106.429 147.644 73.8228C147.644 33.0508 114.592 0 73.8229 0Z" fill="#1B1817"/>
<path d="M27.9605 105.993C27.7979 106.361 27.2209 106.47 26.6952 106.218C26.1598 105.978 25.859 105.478 26.0326 105.11C26.1915 104.733 26.7698 104.628 27.304 104.879C27.8407 105.121 28.1463 105.626 27.9605 105.993Z" fill="#1B1817"/>
<path d="M30.9505 109.328C30.5985 109.655 29.9102 109.503 29.4432 108.987C28.9604 108.473 28.8699 107.784 29.2269 107.453C29.5899 107.128 30.2574 107.281 30.7415 107.794C31.2244 108.315 31.3185 108.998 30.9505 109.328Z" fill="#1B1817"/>
<path d="M33.8613 113.58C33.409 113.894 32.6694 113.6 32.2122 112.943C31.7598 112.287 31.7599 111.499 32.222 111.184C32.6804 110.869 33.409 111.153 33.8723 111.804C34.3234 112.471 34.3234 113.259 33.8613 113.58Z" fill="#1B1817"/>
<path d="M37.849 117.688C37.4444 118.134 36.5825 118.014 35.9517 117.405C35.3063 116.81 35.1266 115.965 35.5324 115.519C35.9419 115.072 36.8087 115.198 37.4444 115.801C38.0849 116.396 38.2805 117.246 37.849 117.688Z" fill="#1B1817"/>
<path d="M43.35 120.073C43.1715 120.651 42.3414 120.914 41.5052 120.668C40.6703 120.415 40.1238 119.738 40.2926 119.153C40.4661 118.571 41.2999 118.298 42.1421 118.56C42.9759 118.812 43.5236 119.485 43.35 120.073Z" fill="#1B1817"/>
<path d="M49.3917 120.515C49.4125 121.124 48.7034 121.629 47.8257 121.64C46.9431 121.659 46.2291 121.167 46.2194 120.568C46.2194 119.953 46.9125 119.453 47.7951 119.438C48.6729 119.421 49.3917 119.91 49.3917 120.515Z" fill="#1B1817"/>
<path d="M55.0137 119.558C55.1188 120.152 54.5088 120.762 53.6372 120.925C52.7802 121.081 51.9869 120.715 51.8781 120.125C51.7717 119.516 52.3927 118.906 53.2485 118.749C54.1213 118.597 54.9025 118.954 55.0137 119.558Z" fill="#1B1817"/>
</svg>
