<svg width="142" height="144" viewBox="0 0 142 144" fill="none" xmlns="http://www.w3.org/2000/svg">
<g clip-path="url(#clip0)">
<path d="M141.143 73.6535C141.143 68.7591 140.746 63.8383 139.899 59.0233H71.9868V86.7492H110.877C109.263 95.6914 104.078 103.602 96.485 108.628V126.618H119.687C133.312 114.078 141.143 95.5591 141.143 73.6535Z" fill="#4285F4"/>
<path d="M71.9868 144C91.4055 144 107.782 137.624 119.713 126.618L96.5115 108.628C90.0562 113.02 81.7226 115.507 72.0132 115.507C53.2295 115.507 37.303 102.834 31.5885 85.7968H7.64578V104.342C19.8685 128.656 44.7636 144 71.9868 144Z" fill="#34A853"/>
<path d="M31.562 85.7968C28.546 76.8547 28.546 67.1718 31.562 58.2297V39.684H7.6458C-2.56622 60.0287 -2.56622 83.9978 7.6458 104.342L31.562 85.7968Z" fill="#FBBC04"/>
<path d="M71.9868 28.4931C82.2517 28.3344 92.1727 32.1969 99.6068 39.2872L120.163 18.7308C107.147 6.50818 89.871 -0.211648 71.9868 -3.52971e-07C44.7635 -3.52971e-07 19.8685 15.3445 7.64578 39.684L31.562 58.2297C37.25 41.1655 53.203 28.4931 71.9868 28.4931Z" fill="#EA4335"/>
</g>
<defs>
<clipPath id="clip0">
<rect width="141.143" height="144" fill="white"/>
</clipPath>
</defs>
</svg>
