<svg width="144" height="144" viewBox="0 0 144 144" fill="none" xmlns="http://www.w3.org/2000/svg">
<path d="M72 144C111.765 144 144 111.765 144 72C144 32.2355 111.765 0 72 0C32.2355 0 0 32.2355 0 72C0 111.765 32.2355 144 72 144Z" fill="url(#paint0_linear)"/>
<path d="M52.5 104H38.9062V53.2812H52.5V104ZM38.1094 40.1562C38.1094 38.125 38.7812 36.4531 40.125 35.1406C41.5 33.8281 43.3594 33.1719 45.7031 33.1719C48.0156 33.1719 49.8594 33.8281 51.2344 35.1406C52.6094 36.4531 53.2969 38.125 53.2969 40.1562C53.2969 42.2188 52.5938 43.9062 51.1875 45.2188C49.8125 46.5312 47.9844 47.1875 45.7031 47.1875C43.4219 47.1875 41.5781 46.5312 40.1719 45.2188C38.7969 43.9062 38.1094 42.2188 38.1094 40.1562ZM76.1719 53.2812L76.5938 59.1406C80.2188 54.6094 85.0781 52.3438 91.1719 52.3438C96.5469 52.3438 100.547 53.9219 103.172 57.0781C105.797 60.2344 107.141 64.9531 107.203 71.2344V104H93.6562V71.5625C93.6562 68.6875 93.0312 66.6094 91.7812 65.3281C90.5312 64.0156 88.4531 63.3594 85.5469 63.3594C81.7344 63.3594 78.875 64.9844 76.9688 68.2344V104H63.4219V53.2812H76.1719Z" fill="white"/>
<defs>
<linearGradient id="paint0_linear" x1="96.048" y1="24.048" x2="60.048" y2="108" gradientUnits="userSpaceOnUse">
<stop stop-color="#3296EF"/>
<stop offset="1" stop-color="#1E96C8"/>
</linearGradient>
</defs>
</svg>
